<?xml version="1.0" standalone="no"?>
<!DOCTYPE svg PUBLIC "-//W3C//DTD SVG 20010904//EN"
 "http://www.w3.org/TR/2001/REC-SVG-20010904/DTD/svg10.dtd">
<svg version="1.0" xmlns="http://www.w3.org/2000/svg"
 width="556.000000pt" height="554.000000pt" viewBox="0 0 556.000000 554.000000"
 preserveAspectRatio="xMidYMid meet">

<g transform="translate(0.000000,554.000000) scale(0.100000,-0.100000)"
fill="#000000" stroke="none">
<path d="M937 5514 c-84 -15 -223 -58 -244 -76 -7 -6 -13 -25 -13 -42 0 -17
-7 -44 -16 -61 -14 -27 -14 -30 2 -42 15 -11 24 -6 65 35 45 44 250 165 293
173 25 5 33 29 9 28 -10 0 -53 -7 -96 -15z"/>
<path d="M3810 5524 c0 -3 8 -18 19 -32 31 -45 62 -143 66 -208 18 -318 -316
-550 -611 -424 -64 28 -127 79 -115 94 6 7 4 18 -5 31 -14 19 -16 18 -56 -23
-40 -39 -41 -43 -26 -59 16 -16 19 -16 38 2 20 18 21 18 48 -8 15 -14 56 -39
92 -56 l65 -31 -48 0 c-54 0 -82 -11 -97 -40 -24 -44 55 -99 171 -121 55 -10
70 -9 103 5 36 15 38 18 32 47 -7 35 -23 52 -78 78 l-38 18 88 1 c129 1 225
38 319 125 150 138 189 388 87 565 -14 23 -31 42 -39 42 -8 0 -15 -3 -15 -6z
m-340 -809 c0 -29 -78 -33 -159 -9 -68 20 -62 26 10 10 62 -15 127 -2 121 24
-3 11 0 11 12 0 9 -7 16 -18 16 -25z"/>
<path d="M2015 5432 c-6 -5 -26 -15 -45 -23 -45 -17 -107 -75 -130 -119 -32
-66 7 -130 80 -130 45 0 105 17 119 33 8 11 5 13 -17 9 -40 -5 -82 31 -82 71
1 18 6 42 13 54 17 31 76 93 87 93 6 0 10 5 10 10 0 12 -22 13 -35 2z"/>
<path d="M2070 5404 c-25 -15 -35 -24 -22 -21 18 4 21 3 12 -8 -6 -7 -20 -11
-30 -8 -11 3 -20 0 -20 -6 0 -6 6 -11 13 -11 7 0 13 -8 13 -19 0 -19 -24 -18
-38 3 -4 6 -10 3 -14 -7 -4 -10 -2 -23 5 -30 8 -8 11 -7 12 4 1 7 4 3 8 -11
l7 -25 26 25 c14 14 31 26 37 28 22 5 53 39 42 47 -6 3 -15 3 -21 0 -5 -3 -7
0 -4 9 5 12 10 13 24 4 14 -9 24 -9 42 -1 22 11 22 12 -9 12 -48 1 -40 16 8
17 22 1 46 7 52 13 8 8 -3 11 -43 11 -40 -1 -67 -8 -100 -26z m7 -60 c-3 -3
-12 -4 -19 -1 -8 3 -5 6 6 6 11 1 17 -2 13 -5z"/>
<path d="M2710 5285 c0 -19 2 -35 5 -35 15 0 55 25 55 35 0 17 -22 35 -42 35
-14 0 -18 -8 -18 -35z"/>
<path d="M1965 5289 c-4 -6 0 -18 9 -27 15 -15 16 -15 16 5 0 25 -15 38 -25
22z"/>
<path d="M2117 5280 c-15 -12 -27 -31 -27 -44 0 -22 -45 -94 -81 -128 -10 -10
-30 -34 -46 -55 -15 -21 -34 -45 -42 -53 -70 -73 -157 -269 -146 -327 11 -62
100 -99 126 -52 9 17 7 28 -7 54 -15 28 -16 40 -6 91 21 104 89 214 252 409
40 47 50 66 48 90 -4 38 -34 44 -71 15z"/>
<path d="M2341 5234 c0 -11 3 -14 6 -6 3 7 2 16 -1 19 -3 4 -6 -2 -5 -13z"/>
<path d="M2305 5190 c-7 -22 -25 -27 -25 -8 0 7 -12 0 -27 -14 -15 -15 -23
-31 -19 -35 4 -4 12 0 17 10 12 21 29 22 29 2 0 -16 -43 -31 -60 -20 -14 9
-63 -23 -55 -35 4 -6 -2 -10 -12 -10 -20 -1 -55 -24 -47 -32 3 -3 -5 -8 -18
-12 -13 -3 -31 -20 -41 -37 -10 -17 -20 -29 -23 -26 -4 3 -17 -7 -31 -24 -21
-25 -23 -33 -15 -58 8 -22 7 -31 -2 -34 -9 -4 -12 3 -9 21 l5 27 -21 -25 c-12
-14 -19 -33 -17 -43 2 -9 1 -15 -4 -12 -9 5 -22 -36 -14 -44 3 -3 9 1 14 9 5
8 15 15 22 15 24 0 70 43 62 57 -6 11 -5 11 8 0 12 -10 21 -10 42 -1 14 7 26
18 26 25 0 8 6 11 14 8 9 -4 21 6 31 26 9 18 12 29 6 26 -6 -4 -11 -3 -11 3 0
5 14 15 30 23 17 7 30 19 30 25 0 16 -12 17 -28 1 -15 -15 -16 -3 -2 22 8 15
15 18 34 10 27 -10 37 -5 29 16 -4 10 0 12 12 8 14 -6 16 -3 11 17 -3 13 -3
18 0 11 8 -18 34 4 34 29 0 11 5 19 10 19 6 0 10 9 10 20 0 11 6 20 14 20 7 0
16 9 19 20 3 13 0 20 -8 20 -8 0 -17 -9 -20 -20z m-175 -204 c0 -15 -3 -16
-14 -7 -8 7 -12 21 -9 32 5 16 8 18 14 7 5 -7 9 -21 9 -32z m-23 -23 c-4 -3 0
-15 9 -24 16 -17 15 -19 -10 -29 -15 -5 -28 -10 -29 -10 -1 0 -3 11 -3 25 -2
22 0 24 14 13 13 -11 15 -10 10 4 -6 15 -1 28 10 28 3 0 2 -3 -1 -7z m-55 -60
c19 -17 25 -39 8 -28 -5 3 -10 1 -10 -5 0 -6 -5 -8 -10 -5 -6 4 -7 11 -4 17 4
6 -1 17 -11 25 -13 9 -14 13 -5 13 7 0 22 -7 32 -17z"/>
<path d="M1434 5068 c-3 -5 -2 -14 4 -20 12 -12 42 -4 42 11 0 13 -39 21 -46
9z"/>
<path d="M2250 4934 c-36 -12 -120 -57 -120 -64 0 -5 -8 -11 -17 -13 -11 -3
-6 -5 10 -6 38 -1 87 23 122 59 16 17 27 30 24 29 -2 0 -11 -3 -19 -5z"/>
<path d="M4100 4925 c-13 -15 -11 -20 17 -45 l31 -28 -32 -6 c-37 -7 -76 -39
-76 -62 0 -8 11 -25 23 -38 21 -21 30 -23 65 -16 l42 7 0 -38 c0 -70 52 -102
91 -56 30 37 24 74 -20 116 -46 43 -55 65 -35 82 13 10 21 10 47 -4 48 -26 77
-25 94 1 15 21 14 24 -21 57 -42 39 -57 43 -81 19 -15 -15 -17 -15 -29 1 -18
25 -98 32 -116 10z"/>
<path d="M1127 4913 c-12 -11 -8 -22 13 -33 16 -9 22 -8 27 6 8 21 -24 44 -40
27z"/>
<path d="M2317 4878 c-28 -37 -46 -85 -28 -74 6 4 14 0 17 -9 11 -27 -4 -29
-26 -4 -16 20 -21 22 -29 9 -6 -8 -6 -17 -2 -20 4 -3 10 -13 14 -22 4 -12 2
-15 -9 -11 -7 3 -14 10 -14 17 0 6 -11 -2 -24 -19 -13 -16 -22 -33 -19 -38 2
-4 1 -7 -4 -6 -4 1 -16 -1 -26 -6 -10 -4 -40 -5 -67 -2 -39 5 -51 2 -66 -14
-17 -19 -16 -19 42 -19 71 0 149 31 140 55 -5 13 -2 14 17 4 21 -12 21 -11 7
6 -14 17 -13 18 3 12 10 -4 28 -2 39 4 25 13 82 71 84 85 1 5 5 19 9 32 5 19
2 25 -14 29 -11 3 -18 9 -15 14 14 23 -8 5 -29 -23z m23 -18 c-20 -13 -33 -13
-25 0 3 6 14 10 23 10 15 0 15 -2 2 -10z"/>
<path d="M1457 4873 c-4 -3 -7 -14 -7 -24 0 -39 -96 -83 -126 -58 -25 21 -40
-4 -24 -41 10 -24 17 -29 34 -24 11 3 29 13 38 22 17 14 59 13 99 -3 18 -7 31
26 24 60 -13 65 -16 75 -24 75 -4 0 -11 -3 -14 -7z"/>
<path d="M4222 4808 c6 -18 28 -21 28 -4 0 9 -7 16 -16 16 -9 0 -14 -5 -12
-12z"/>
<path d="M525 4752 c-11 -2 -31 -12 -46 -22 -24 -18 -25 -18 -37 1 -7 10 -22
19 -35 18 l-22 0 22 -11 c39 -19 35 -35 -7 -34 -43 1 -87 -25 -108 -65 -21
-40 -10 -123 24 -171 65 -91 140 -124 227 -99 75 22 91 35 120 90 44 89 34
214 -21 265 -20 17 -88 34 -117 28z m-173 -122 c-2 -8 -6 -36 -9 -62 -6 -51
-20 -70 -34 -47 -12 19 -11 86 2 110 12 22 46 21 41 -1z"/>
<path d="M1404 4493 c-52 -5 -64 -28 -64 -119 0 -88 33 -182 101 -292 11 -18
68 -48 74 -40 1 2 -3 41 -10 88 -7 47 -15 108 -18 135 l-5 50 82 0 c56 0 88 5
99 14 23 19 22 92 -1 121 -16 20 -22 22 -53 12 -19 -5 -55 -13 -81 -16 -48 -6
-48 -6 -48 24 0 23 -4 30 -17 28 -10 -1 -37 -3 -59 -5z"/>
<path d="M5123 4223 c9 -2 23 -2 30 0 6 3 -1 5 -18 5 -16 0 -22 -2 -12 -5z"/>
<path d="M4940 4210 c0 -13 20 -13 40 0 12 8 9 10 -12 10 -16 0 -28 -4 -28
-10z"/>
<path d="M334 4175 c-11 -17 -15 -41 -12 -85 1 -33 1 -60 -2 -60 -3 0 -16 12
-29 25 -27 29 -34 30 -51 10 -16 -19 -9 -56 27 -140 33 -77 56 -90 158 -90 97
0 143 17 180 68 17 23 33 49 37 59 18 44 -25 64 -70 32 l-23 -16 7 65 c9 92 0
137 -30 137 -34 0 -65 -45 -79 -115 -5 -24 -12 -8 -21 46 -7 41 -40 89 -61 89
-8 0 -22 -11 -31 -25z"/>
<path d="M4816 4065 c-3 -8 9 -15 35 -19 31 -5 45 -15 69 -48 17 -22 30 -45
30 -50 0 -5 20 -40 44 -77 77 -119 183 -173 279 -142 69 23 62 36 -21 36 -116
0 -188 49 -247 164 -42 84 -91 131 -144 141 -28 5 -41 4 -45 -5z"/>
<path d="M4690 4051 c0 -6 4 -12 8 -15 5 -3 9 1 9 9 0 8 -4 15 -9 15 -4 0 -8
-4 -8 -9z"/>
<path d="M5427 4031 c-3 -12 -2 -23 3 -26 11 -7 20 19 10 34 -5 9 -9 7 -13 -8z"/>
<path d="M4648 3993 c7 -3 16 -2 19 1 4 3 -2 6 -13 5 -11 0 -14 -3 -6 -6z"/>
<path d="M4715 3900 l-19 -21 44 3 c32 2 45 7 45 18 0 24 -48 24 -70 0z"/>
<path d="M5491 3884 c0 -11 3 -14 6 -6 3 7 2 16 -1 19 -3 4 -6 -2 -5 -13z"/>
<path d="M2122 3773 c-56 -27 -116 -139 -91 -170 14 -15 39 0 39 24 0 33 40
91 76 108 31 14 43 15 75 6 87 -26 140 -107 142 -219 2 -60 4 -67 22 -67 18 0
20 6 19 75 0 60 -5 85 -27 126 -56 110 -166 161 -255 117z"/>
<path d="M4715 3771 c-3 -2 -5 -12 -5 -22 0 -12 7 -16 25 -15 32 1 36 42 5 42
-12 0 -23 -2 -25 -5z"/>
<path d="M5333 3728 c-43 -54 -114 -233 -103 -262 6 -17 7 -17 20 -1 9 10 22
14 36 11 21 -6 22 -4 12 26 -14 45 -14 42 21 142 31 86 35 110 14 84z"/>
<path d="M425 3634 c20 -37 50 -84 68 -105 103 -125 339 -247 454 -236 71 7
79 14 53 42 -13 14 -58 35 -108 50 -138 44 -217 89 -302 174 -42 42 -82 91
-89 109 -13 30 -16 32 -63 32 l-50 0 37 -66z"/>
<path d="M4050 3680 c0 -5 5 -10 10 -10 6 0 10 5 10 10 0 6 -4 10 -10 10 -5 0
-10 -4 -10 -10z"/>
<path d="M26 3654 c-3 -9 -6 -137 -6 -285 l0 -269 25 -16 c38 -24 68 -7 160
92 82 88 111 144 74 144 -12 0 -19 -9 -21 -27 -4 -34 -26 -40 -73 -18 -43 21
-44 34 -10 199 24 119 24 155 -1 122 -11 -16 -14 -15 -29 13 -8 17 -20 31 -25
31 -13 0 -14 2 15 -54 28 -55 31 -76 12 -76 -27 0 -55 31 -67 77 -7 26 -14 56
-17 66 -5 21 -29 22 -37 1z m142 -442 c-40 -56 -88 -103 -98 -97 -8 5 6 26 41
61 52 53 83 72 57 36z"/>
<path d="M4094 3616 c-7 -17 50 -71 75 -71 29 0 19 21 -25 53 -36 27 -45 30
-50 18z"/>
<path d="M5148 3623 c-2 -5 -1 -26 2 -48 l5 -40 18 27 c12 17 16 35 12 48 -6
19 -30 28 -37 13z"/>
<path d="M5027 3594 c-4 -4 -7 -18 -7 -31 0 -21 4 -24 28 -21 28 3 39 33 12
33 -8 0 -17 6 -20 13 -3 7 -9 10 -13 6z"/>
<path d="M303 3554 c-7 -3 -10 -11 -7 -17 2 -7 -2 -47 -9 -90 -12 -69 -12 -77
2 -75 10 2 19 25 27 73 20 112 19 121 -13 109z"/>
<path d="M4277 3486 c-6 -15 2 -24 45 -45 25 -13 48 -9 48 8 0 4 -17 16 -37
26 -21 11 -41 21 -44 23 -4 1 -9 -4 -12 -12z"/>
<path d="M3209 3377 c-37 -24 -92 -119 -87 -152 5 -37 32 -21 51 30 10 28 28
60 39 72 43 46 126 42 184 -9 54 -47 77 -101 82 -191 4 -65 7 -77 21 -75 12 2
17 17 19 63 6 112 -37 200 -125 255 -60 39 -133 41 -184 7z"/>
<path d="M4222 3363 c-23 -15 -42 -34 -42 -41 0 -23 84 -143 134 -192 25 -25
44 -51 41 -58 -3 -7 7 -17 23 -23 15 -5 47 -20 72 -33 25 -13 56 -27 70 -31
14 -4 64 -27 112 -51 l86 -43 16 34 c21 44 34 114 29 152 -4 26 -12 32 -46 43
-45 13 -107 71 -107 99 0 10 9 30 20 44 l20 25 -23 6 c-45 12 -63 3 -114 -54
l-52 -59 -33 37 c-19 21 -53 68 -77 105 -50 77 -65 82 -129 40z"/>
<path d="M5445 3376 c-11 -7 -46 -19 -77 -26 -56 -13 -69 -22 -48 -35 6 -3 10
-19 10 -36 0 -16 4 -29 8 -29 23 0 132 101 132 123 0 5 5 5 12 1 7 -4 8 -3 4
4 -9 15 -17 15 -41 -2z"/>
<path d="M280 3350 c0 -5 5 -10 11 -10 5 0 7 5 4 10 -3 6 -8 10 -11 10 -2 0
-4 -4 -4 -10z"/>
<path d="M2593 3305 c-84 -37 -98 -165 -23 -222 30 -23 35 6 6 36 -49 52 -29
142 37 165 34 12 74 -14 94 -62 18 -45 19 -46 31 -38 16 9 -8 72 -37 100 -34
32 -68 39 -108 21z"/>
<path d="M4922 3150 c0 -14 2 -19 5 -12 2 6 2 18 0 25 -3 6 -5 1 -5 -13z"/>
<path d="M4940 3110 c0 -5 5 -10 10 -10 6 0 10 5 10 10 0 6 -4 10 -10 10 -5 0
-10 -4 -10 -10z"/>
<path d="M5241 3107 c-9 -12 -19 -49 -37 -146 l-5 -24 -23 22 c-12 11 -32 21
-44 21 -48 0 -16 -132 43 -178 45 -35 132 -58 208 -54 65 4 184 202 121 202
-9 0 -32 -9 -50 -21 l-34 -21 20 48 c13 29 20 64 18 88 -3 35 -6 41 -28 43
-33 4 -50 -12 -80 -70 l-25 -47 -7 61 c-4 33 -12 67 -19 75 -14 18 -43 18 -58
1z"/>
<path d="M4908 3093 c7 -3 16 -2 19 1 4 3 -2 6 -13 5 -11 0 -14 -3 -6 -6z"/>
<path d="M2211 3052 c-105 -389 15 -680 289 -700 91 -6 150 10 222 60 66 46
110 101 158 198 32 64 80 192 80 215 0 8 -37 16 -101 24 -206 25 -435 110
-613 226 -25 16 -25 16 -35 -23z"/>
<path d="M4891 3064 c0 -11 3 -14 6 -6 3 7 2 16 -1 19 -3 4 -6 -2 -5 -13z"/>
<path d="M880 2624 c-90 -24 -242 -93 -298 -136 -34 -25 -70 -66 -99 -111 -58
-92 -66 -98 -106 -85 -80 25 -98 14 -118 -67 -19 -83 -26 -95 -54 -95 -33 0
-65 33 -65 68 -1 27 -1 27 -20 -8 -26 -48 -25 -73 6 -109 l26 -31 -25 0 c-32
0 -73 -33 -81 -66 -9 -36 -2 -40 30 -15 37 29 106 29 134 -1 24 -26 25 -32 4
-52 -20 -20 -53 -20 -75 0 -16 14 -18 14 -29 -5 -15 -29 3 -59 37 -63 16 -2
50 0 78 3 40 5 60 1 100 -17 27 -13 64 -24 80 -24 17 0 45 -4 62 -9 32 -9 33
-9 38 27 3 20 18 74 32 120 14 45 23 86 19 89 -3 3 -6 1 -6 -5 0 -7 -4 -12
-10 -12 -5 0 10 26 33 58 24 31 47 65 50 76 7 18 7 18 -20 0 -39 -25 -75 -61
-118 -119 -22 -29 -35 -41 -31 -27 3 12 9 32 12 45 17 62 46 115 61 110 10 -4
13 0 11 12 -2 10 3 20 11 23 10 3 12 0 8 -12 -5 -13 -3 -15 12 -7 10 6 21 7
25 3 4 -3 4 1 1 10 -4 9 -19 18 -35 20 -16 2 -27 1 -25 -2 5 -9 -30 -42 -37
-35 -2 3 -15 -14 -28 -38 -19 -32 -25 -38 -28 -24 -5 24 51 113 68 109 11 -3
11 0 0 13 -12 14 -11 18 1 26 8 5 21 9 30 9 8 0 19 4 25 9 15 14 58 25 50 12
-6 -8 42 -42 59 -41 17 0 18 -1 5 -10 -8 -5 -12 -11 -9 -14 3 -3 31 21 63 54
l58 60 -27 10 c-14 5 -33 10 -41 10 -8 0 -14 4 -14 9 0 17 32 21 60 6 39 -20
50 -19 85 9 l30 25 -59 -6 c-37 -4 -57 -3 -53 4 4 5 -6 8 -23 5 -17 -2 -28 -7
-26 -11 3 -4 -4 -12 -14 -18 -13 -9 -22 -9 -34 0 -18 13 -12 47 8 47 6 0 17 9
24 20 7 11 21 20 32 20 11 0 20 4 20 9 0 5 23 17 50 27 28 10 50 22 50 26 0
14 -54 8 -97 -12 -24 -10 -43 -16 -43 -12 0 4 -5 -1 -11 -10 -5 -10 -19 -23
-31 -29 l-21 -11 21 29 c25 36 51 58 58 50 3 -2 16 6 29 19 16 15 30 21 41 17
13 -5 15 -3 9 7 -6 10 -3 12 13 8 12 -4 20 -3 17 2 -8 12 24 21 95 25 l65 5
-51 -18 c-28 -9 -61 -25 -75 -35 l-24 -18 27 6 c15 3 63 6 107 6 l81 1 -26 34
c-26 34 -26 34 -4 34 32 0 87 -29 109 -56 10 -13 29 -28 42 -34 18 -8 11 -9
-31 -4 -64 8 -123 7 -165 -2 -77 -16 -165 -46 -187 -64 l-23 -19 40 -2 c22 -1
48 0 59 1 10 1 22 -4 26 -10 5 -8 13 -9 26 -2 36 20 171 61 223 68 28 4 54 10
56 15 3 4 22 5 43 2 l37 -6 -19 22 c-24 27 -90 64 -152 85 -59 20 -170 20
-244 0z m-395 -363 c-18 -36 -60 -70 -94 -77 -52 -11 -71 -24 -91 -63 -24 -49
-46 -62 -80 -49 -25 10 -25 10 -3 18 13 5 36 38 59 84 20 42 42 76 48 76 6 0
28 -5 48 -10 40 -11 80 2 107 34 21 25 23 19 6 -13z"/>
<path d="M5160 2615 c-39 -41 -120 -91 -206 -126 -76 -31 -86 -32 -244 -37
-149 -3 -178 -1 -293 22 -71 15 -191 47 -267 73 -77 25 -146 43 -154 40 -9 -4
-16 -18 -16 -31 0 -32 27 -46 178 -97 184 -62 350 -91 527 -92 177 0 250 14
372 73 113 55 255 190 199 190 -7 0 -26 3 -42 6 -23 4 -34 0 -54 -21z"/>
<path d="M1084 2585 c11 -8 27 -15 35 -15 10 1 7 6 -9 15 -33 19 -50 18 -26 0z"/>
<path d="M1393 2319 c32 -26 37 -36 37 -73 0 -85 -59 -138 -182 -161 l-73 -14
70 5 c39 3 88 10 109 15 47 13 96 58 97 91 0 22 1 22 9 3 23 -54 -3 -151 -57
-207 -15 -16 -22 -28 -16 -28 21 0 102 101 109 136 8 41 3 65 -38 177 -32 87
-32 87 -67 87 l-36 0 38 -31z"/>
<path d="M20 2306 c0 -7 9 -16 20 -19 26 -7 26 -27 0 -34 -29 -8 -25 -19 6
-18 23 0 27 5 30 33 3 23 0 32 -11 32 -8 0 -15 5 -15 10 0 6 -7 10 -15 10 -8
0 -15 -6 -15 -14z"/>
<path d="M1106 2266 c-71 -37 -170 -105 -163 -113 15 -14 183 74 222 117 31
34 11 32 -59 -4z"/>
<path d="M1233 2283 c-7 -2 -13 -14 -13 -25 0 -16 5 -19 23 -14 12 3 33 6 47
6 l25 1 -24 19 c-23 20 -35 23 -58 13z"/>
<path d="M4360 2264 c35 -43 109 -113 165 -155 104 -77 270 -168 283 -155 10
11 -54 80 -123 133 -37 29 -73 61 -80 70 -15 21 -185 109 -230 120 -28 6 -29
5 -15 -13z"/>
<path d="M4820 2260 c-11 -11 -20 -28 -20 -37 0 -13 -6 -11 -28 10 -33 32 -62
34 -87 7 -14 -16 -15 -21 -4 -24 96 -34 133 -52 159 -76 28 -26 30 -33 30 -99
0 -59 4 -75 21 -92 17 -17 29 -20 58 -15 45 7 64 31 58 72 -4 25 0 37 18 54
32 31 39 64 19 105 -16 35 -30 41 -81 36 -14 -1 -23 4 -23 12 0 8 -9 26 -21
41 -25 32 -70 35 -99 6z"/>
<path d="M585 2240 c11 -5 27 -9 35 -9 13 -1 13 0 0 9 -8 5 -24 9 -35 9 l-20
0 20 -9z"/>
<path d="M4038 2202 c-43 -48 -127 -192 -112 -192 8 0 70 46 93 68 12 11 19 8
50 -21 20 -18 51 -46 69 -60 l34 -27 41 35 c40 35 134 85 158 85 6 0 -7 -20
-29 -44 -22 -24 -52 -63 -67 -86 l-27 -43 24 -24 25 -24 58 53 59 53 -42 -56
c-23 -31 -42 -60 -42 -65 0 -12 66 -62 167 -129 l71 -47 -33 -71 c-19 -40 -40
-95 -48 -123 l-15 -52 40 0 c41 -1 78 -24 78 -49 0 -21 17 -16 78 26 66 44
152 132 176 180 l17 32 -52 77 c-157 230 -411 428 -649 506 -30 10 -59 25 -65
33 -10 13 -18 7 -57 -35z"/>
<path d="M5310 2222 c0 -10 5 -23 12 -30 9 -9 9 -15 1 -23 -12 -12 -21 -7 -78
35 -7 5 -20 6 -29 3 -15 -6 -16 -15 -10 -64 3 -32 8 -60 10 -62 9 -10 34 11
34 27 0 17 6 19 43 15 32 -4 46 -1 59 13 26 30 32 69 13 88 -22 22 -55 21 -55
-2z"/>
<path d="M1253 2192 c-19 -12 -35 -64 -23 -76 7 -7 10 -1 10 20 0 52 36 70 73
37 19 -17 20 -17 8 5 -12 22 -44 29 -68 14z"/>
<path d="M3461 2143 c0 -5 67 -80 149 -168 l149 -160 -47 -39 c-87 -73 -160
-155 -164 -186 -3 -17 -1 -30 3 -30 10 0 234 239 234 250 0 12 -306 340 -317
340 -4 0 -8 -3 -7 -7z"/>
<path d="M870 2081 c-12 -23 -13 -51 -2 -51 10 0 62 53 62 63 0 16 -50 6 -60
-12z"/>
<path d="M943 2042 c-19 -12 -35 -64 -23 -76 7 -7 10 -1 10 20 0 17 5 35 12
42 17 17 55 15 62 -4 4 -9 9 -14 13 -11 3 4 0 13 -7 22 -13 16 -47 20 -67 7z"/>
<path d="M774 1967 c-68 -103 -67 -99 -38 -155 26 -50 161 -193 148 -157 -9
27 -49 82 -91 126 -32 33 -34 39 -22 60 l13 24 11 -35 c16 -55 33 -78 68 -96
l32 -16 -31 33 c-60 64 -75 115 -53 177 6 16 9 46 7 66 l-3 35 -41 -62z"/>
<path d="M727 1973 c-4 -3 -7 -11 -7 -17 0 -6 5 -5 12 2 6 6 9 14 7 17 -3 3
-9 2 -12 -2z"/>
<path d="M4010 1968 c-25 -10 -25 -10 14 -24 45 -16 68 -6 46 21 -14 17 -25
18 -60 3z"/>
<path d="M1267 1953 c-4 -3 -7 -17 -7 -29 0 -45 -101 -92 -135 -64 -8 7 -22
10 -30 6 -14 -5 -14 -9 0 -43 9 -20 18 -39 20 -41 2 -3 20 5 40 17 39 23 94
27 125 11 16 -9 21 -6 26 15 6 23 0 75 -12 118 -6 18 -16 22 -27 10z"/>
<path d="M3982 1888 c-41 -41 38 -102 88 -67 11 8 7 9 -17 4 -56 -11 -95 29
-61 63 7 7 10 12 7 12 -3 0 -10 -5 -17 -12z"/>
<path d="M1920 1880 c0 -5 5 -10 10 -10 6 0 10 5 10 10 0 6 -4 10 -10 10 -5 0
-10 -4 -10 -10z"/>
<path d="M1796 1850 c-26 -11 -50 -21 -53 -23 -2 -3 7 -17 21 -32 23 -25 28
-26 58 -16 18 7 42 18 52 26 18 13 18 16 2 40 -19 29 -16 29 -80 5z"/>
<path d="M570 1841 c0 -6 4 -13 10 -16 6 -3 7 1 4 9 -7 18 -14 21 -14 7z"/>
<path d="M1610 1795 c-37 -9 -45 -15 -48 -35 -4 -42 10 -53 57 -45 47 8 58 23
45 64 -9 27 -10 27 -54 16z"/>
<path d="M640 1710 c0 -18 102 -60 146 -60 54 0 60 9 22 36 -23 17 -35 21 -49
14 -25 -14 -56 -12 -89 5 -19 10 -30 11 -30 5z"/>
<path d="M4356 1713 c-11 -11 -6 -27 15 -52 25 -30 44 -17 30 21 -9 25 -34 42
-45 31z"/>
<path d="M3951 1647 c-12 -24 -21 -58 -21 -75 0 -32 1 -32 48 -32 40 0 55 -5
82 -30 18 -16 37 -30 41 -30 4 0 16 15 27 32 24 38 15 49 -33 41 -26 -4 -38 1
-69 31 -30 28 -37 41 -32 60 3 14 0 28 -8 35 -11 9 -18 3 -35 -32z"/>
<path d="M4230 1655 c-12 -23 -12 -28 8 -47 22 -22 75 -29 92 -12 6 6 -6 8
-32 6 -49 -5 -74 17 -57 50 6 11 9 22 6 24 -2 2 -10 -7 -17 -21z"/>
<path d="M5031 1666 c-9 -11 -4 -23 25 -57 46 -55 92 -146 100 -199 5 -32 13
-44 31 -51 13 -5 26 -9 27 -9 16 0 -16 125 -46 185 -27 53 -100 145 -114 145
-6 0 -17 -6 -23 -14z"/>
<path d="M1298 1613 c-10 -2 -18 -13 -18 -23 0 -33 -65 -73 -126 -78 -66 -5
-75 -20 -75 -120 0 -104 54 -234 147 -353 26 -32 47 -59 48 -59 1 0 1 64 2
143 1 178 6 192 72 201 67 9 76 21 63 91 -13 72 -16 76 -51 68 -35 -7 -37 1
-15 73 8 27 15 52 15 57 0 7 -33 8 -62 0z"/>
<path d="M872 1537 c-21 -47 -21 -49 -3 -33 18 16 38 72 29 81 -1 1 -13 -20
-26 -48z"/>
<path d="M2880 1553 c0 -5 53 -57 118 -115 64 -58 142 -129 172 -157 30 -27
59 -50 64 -51 5 0 61 55 126 123 105 109 130 147 97 147 -20 0 -93 -69 -157
-148 -36 -45 -69 -81 -75 -81 -10 -1 -121 92 -273 228 -40 34 -72 59 -72 54z"/>
<path d="M4885 1473 c2 -16 4 -31 4 -35 1 -5 6 -8 12 -8 8 0 7 6 -2 17 -12 15
-12 16 4 10 16 -6 16 -5 1 18 -21 32 -23 31 -19 -2z"/>
<path d="M3810 1348 c0 -19 2 -20 10 -8 13 19 13 30 0 30 -5 0 -10 -10 -10
-22z"/>
<path d="M2754 1285 c-16 -40 30 -221 106 -421 81 -213 193 -372 350 -499 19
-15 36 -32 36 -36 1 -5 2 -14 3 -19 1 -7 14 -8 36 -4 41 7 65 -8 65 -40 -1
-31 -24 -56 -52 -56 -76 0 -141 -70 -136 -145 l3 -40 61 -3 c58 -3 63 -1 88
28 62 74 126 219 126 285 0 30 -3 35 -23 35 -13 0 -32 10 -43 21 -23 26 -56
39 -69 29 -17 -14 -138 93 -196 172 -74 100 -72 98 -139 235 -60 124 -93 217
-133 378 -21 84 -24 90 -50 93 -18 2 -29 -2 -33 -13z"/>
<path d="M5195 1235 c7 -33 12 -41 21 -33 3 4 -2 19 -11 35 l-16 28 6 -30z"/>
<path d="M5172 1200 c0 -14 2 -19 5 -12 2 6 2 18 0 25 -3 6 -5 1 -5 -13z"/>
<path d="M5160 1151 c0 -5 5 -13 10 -16 6 -3 10 -2 10 4 0 5 -4 13 -10 16 -5
3 -10 2 -10 -4z"/>
<path d="M340 1111 c0 -5 15 -14 33 -20 l32 -11 -24 20 c-25 21 -41 26 -41 11z"/>
<path d="M5172 1100 c-6 -10 -8 -21 -3 -24 5 -3 11 4 14 16 8 29 4 32 -11 8z"/>
<path d="M4647 1099 c7 -7 15 -10 18 -7 3 3 -2 9 -12 12 -14 6 -15 5 -6 -5z"/>
<path d="M688 1083 c7 -3 16 -2 19 1 4 3 -2 6 -13 5 -11 0 -14 -3 -6 -6z"/>
<path d="M4708 1083 c12 -2 32 -2 45 0 12 2 2 4 -23 4 -25 0 -35 -2 -22 -4z"/>
<path d="M733 1073 c9 -2 23 -2 30 0 6 3 -1 5 -18 5 -16 0 -22 -2 -12 -5z"/>
<path d="M5088 1028 c-156 -186 -431 -210 -637 -56 -49 37 -54 39 -70 24 -15
-16 -13 -20 24 -52 153 -137 412 -167 590 -68 84 47 187 164 144 164 -6 0 -9
9 -6 20 3 11 4 20 2 20 -2 0 -23 -23 -47 -52z"/>
<path d="M3835 1060 c-3 -5 1 -10 9 -10 9 0 16 5 16 10 0 6 -4 10 -9 10 -6 0
-13 -4 -16 -10z"/>
<path d="M461 1050 c43 -25 269 -76 269 -60 0 4 -19 10 -42 14 -24 4 -78 18
-121 31 -80 25 -138 34 -106 15z"/>
<path d="M1758 887 c-33 -19 -38 -27 -43 -72 -8 -60 8 -186 30 -239 15 -35 15
-39 -1 -50 -18 -14 -12 -36 10 -36 22 0 48 -37 41 -58 -6 -21 -61 -47 -70 -33
-5 9 -73 44 -92 47 -6 1 -32 -2 -57 -8 -71 -15 -113 -82 -90 -142 5 -12 21
-16 68 -16 108 0 260 52 334 114 l32 28 -20 25 c-11 14 -20 41 -20 59 0 21 -7
38 -20 47 -11 7 -27 34 -36 58 -20 55 -30 212 -16 262 12 44 5 45 -50 14z"/>
<path d="M3839 893 c-15 -3 -34 -42 -25 -50 1 -1 18 11 37 27 32 27 28 34 -12
23z"/>
<path d="M894 605 l-28 -37 35 -32 c20 -17 72 -64 117 -104 45 -40 82 -71 82
-67 0 3 -13 17 -29 31 -16 13 -31 33 -34 45 -3 11 -3 18 0 15 3 -3 13 4 22 16
l17 21 34 -30 c31 -28 33 -33 20 -49 -10 -14 -11 -16 -1 -7 11 9 22 9 50 -3
l36 -14 -25 19 c-14 11 -26 18 -27 17 -2 -2 -29 22 -61 53 -31 31 -75 71 -97
90 -22 19 -50 43 -61 53 -22 19 -22 19 -50 -17z m57 -4 c22 -18 22 -19 6 -45
-21 -31 -28 -32 -52 -6 -16 18 -17 23 -5 45 16 30 21 31 51 6z m87 -73 c12
-15 12 -59 0 -52 -5 3 -11 -2 -14 -10 -5 -13 -10 -12 -35 6 -34 25 -35 30 -13
63 17 26 36 23 62 -7z"/>
<path d="M1060 595 c13 -14 33 -25 44 -25 19 1 18 3 -9 25 -41 34 -66 33 -35
0z"/>
<path d="M822 523 c-16 -20 -19 -30 -11 -40 14 -15 32 -6 25 12 -3 8 2 19 10
25 8 7 14 16 14 21 0 17 -16 9 -38 -18z"/>
<path d="M853 482 c-6 -4 -14 -19 -18 -34 -5 -21 -2 -29 15 -38 22 -12 55 -6
46 8 -2 4 -1 14 4 22 18 29 -17 61 -47 42z m17 -32 c0 -5 -5 -10 -11 -10 -5 0
-7 5 -4 10 3 6 8 10 11 10 2 0 4 -4 4 -10z"/>
<path d="M1126 384 c-9 -8 -16 -23 -15 -32 0 -14 2 -14 6 -2 3 8 12 23 21 33
19 21 9 23 -12 1z"/>
<path d="M1140 330 c8 -5 22 -9 30 -9 10 0 8 3 -5 9 -27 12 -43 12 -25 0z"/>
<path d="M1012 318 c-7 -7 -12 -25 -12 -40 0 -22 6 -29 28 -34 15 -4 38 -15
52 -25 32 -23 120 -43 133 -30 10 10 -4 15 -64 25 -20 4 -44 15 -54 26 -10 11
-22 17 -28 13 -6 -4 -7 4 -3 21 11 44 -23 73 -52 44z"/>
<path d="M1198 313 c7 -3 16 -2 19 1 4 3 -2 6 -13 5 -11 0 -14 -3 -6 -6z"/>
<path d="M778 153 c10 -4 10 -8 0 -21 -12 -15 -11 -16 4 -3 19 14 15 32 -5 30
-8 0 -8 -2 1 -6z"/>
<path d="M680 135 c0 -8 4 -15 9 -15 5 0 11 7 15 15 3 9 0 15 -9 15 -8 0 -15
-7 -15 -15z"/>
<path d="M840 134 c0 -9 5 -14 12 -12 18 6 21 28 4 28 -9 0 -16 -7 -16 -16z"/>
<path d="M909 99 c-7 -14 -7 -25 -1 -31 6 -6 11 1 14 21 5 36 3 38 -13 10z"/>
<path d="M2832 108 c-7 -7 -12 -29 -12 -50 0 -31 4 -38 19 -38 15 0 18 5 14
21 -4 16 -2 20 8 17 8 -3 13 -13 13 -22 -1 -12 7 -16 37 -16 22 0 39 3 39 8 0
7 -95 92 -102 92 -2 0 -9 -5 -16 -12z"/>
<path d="M765 90 c27 -12 35 -12 35 0 0 6 -12 10 -27 9 -25 0 -26 -1 -8 -9z"/>
<path d="M830 79 c0 -11 5 -17 10 -14 6 3 10 13 10 21 0 8 -4 14 -10 14 -5 0
-10 -9 -10 -21z"/>
<path d="M963 85 c-3 -9 -3 -18 -1 -21 3 -3 8 4 11 16 6 23 -1 27 -10 5z"/>
<path d="M987 81 c-4 -17 -3 -21 5 -13 5 5 8 16 6 23 -3 8 -7 3 -11 -10z"/>
<path d="M1016 83 c-10 -25 -7 -28 9 -7 14 19 14 19 15 -1 1 -19 1 -19 11 -2
6 9 14 15 20 12 5 -4 9 -2 9 3 0 16 -58 12 -64 -5z"/>
</g>
</svg>
